<?xml version="1.0" encoding="UTF-8"?>
<svg version="1.1" xmlns="http://www.w3.org/2000/svg" width="34" height="26">
<path d="M0 0 C6.00010901 0.20000363 9.28354104 1.34474431 14 5 C14.515625 4.731875 15.03125 4.46375 15.5625 4.1875 C25.48255814 -0.64534884 25.48255814 -0.64534884 30 0 C32.53054337 2.53054337 32.25683229 3.43548882 32.265625 6.9375 C32.26949219 8.40316406 32.26949219 8.40316406 32.2734375 9.8984375 C32.26570313 10.92195312 32.25796875 11.94546875 32.25 13 C32.26160156 14.53527344 32.26160156 14.53527344 32.2734375 16.1015625 C32.27085938 17.07867188 32.26828125 18.05578125 32.265625 19.0625 C32.26336914 19.96097656 32.26111328 20.85945313 32.25878906 21.78515625 C32 24 32 24 30 26 C27.05078125 26.25878906 27.05078125 26.25878906 23.3125 26.265625 C22.65419189 26.26753845 21.99588379 26.2694519 21.31762695 26.27142334 C19.9256146 26.2727845 18.53358953 26.26909283 17.14160156 26.26074219 C15.00817411 26.250041 12.87558869 26.26063906 10.7421875 26.2734375 C9.39062314 26.27211589 8.0390593 26.26955347 6.6875 26.265625 C5.45386719 26.26336914 4.22023438 26.26111328 2.94921875 26.25878906 C0 26 0 26 -2 24 C-2.25878906 21.78515625 -2.25878906 21.78515625 -2.265625 19.0625 C-2.26820312 18.08539062 -2.27078125 17.10828125 -2.2734375 16.1015625 C-2.26570312 15.07804688 -2.25796875 14.05453125 -2.25 13 C-2.25773438 11.97648438 -2.26546875 10.95296875 -2.2734375 9.8984375 C-2.27085938 8.92132813 -2.26828125 7.94421875 -2.265625 6.9375 C-2.26336914 6.03902344 -2.26111328 5.14054688 -2.25878906 4.21484375 C-2 2 -2 2 0 0 Z " fill="#605CFE" transform="translate(2,0)"/>
<path d="M0 0 C2.53054337 2.53054337 2.25683229 3.43548882 2.265625 6.9375 C2.26949219 8.40316406 2.26949219 8.40316406 2.2734375 9.8984375 C2.26570313 10.92195312 2.25796875 11.94546875 2.25 13 C2.25773437 14.02351562 2.26546875 15.04703125 2.2734375 16.1015625 C2.27085938 17.07867188 2.26828125 18.05578125 2.265625 19.0625 C2.26336914 19.96097656 2.26111328 20.85945313 2.25878906 21.78515625 C2 24 2 24 0 26 C-2.3828125 26.1953125 -2.3828125 26.1953125 -5.125 26.125 C-6.49011719 26.09792969 -6.49011719 26.09792969 -7.8828125 26.0703125 C-8.58148438 26.04710938 -9.28015625 26.02390625 -10 26 C-9.34 25.67 -8.68 25.34 -8 25 C-8.2518713 17.19198969 -10.62495135 12.40871041 -15 6 C-10.32856661 1.99591424 -6.33449224 -0.68480997 0 0 Z " fill="#3CD8EB" transform="translate(32,0)"/>
<path d="M0 0 C4.0011569 1.33371897 4.8265705 3.27734778 6.9140625 6.80078125 C8.45046682 9.91227633 9 12.53825428 9 16 C7.84765625 17.67578125 7.84765625 17.67578125 6 19 C3.37109375 19.3984375 3.37109375 19.3984375 0.4375 19.375 C-0.53316406 19.38273437 -1.50382813 19.39046875 -2.50390625 19.3984375 C-3.32761719 19.26695313 -4.15132812 19.13546875 -5 19 C-7.10561325 15.84158013 -7.30914879 14.70249981 -6.69140625 11.05078125 C-5.29765961 6.91678699 -2.5779379 3.47666854 0 0 Z " fill="#1952EB" transform="translate(16,7)"/>
</svg>
