<svg width="20" height="22" viewBox="0 0 20 22" fill="none" xmlns="http://www.w3.org/2000/svg">
<g clip-path="url(#clip0_22103_22220)">
<path d="M9.62861 6.0583C6.8958 6.0583 4.6915 8.2626 4.6915 10.9954C4.6915 13.7282 6.8958 15.9325 9.62861 15.9325C12.3614 15.9325 14.5657 13.7282 14.5657 10.9954C14.5657 8.2626 12.3614 6.0583 9.62861 6.0583ZM9.62861 14.2052C7.8626 14.2052 6.41885 12.7657 6.41885 10.9954C6.41885 9.2251 7.8583 7.78564 9.62861 7.78564C11.3989 7.78564 12.8384 9.2251 12.8384 10.9954C12.8384 12.7657 11.3946 14.2052 9.62861 14.2052ZM15.9192 5.85635C15.9192 6.49658 15.4036 7.00791 14.7677 7.00791C14.1274 7.00791 13.6161 6.49229 13.6161 5.85635C13.6161 5.22041 14.1317 4.70478 14.7677 4.70478C15.4036 4.70478 15.9192 5.22041 15.9192 5.85635ZM19.1892 7.0251C19.1161 5.48252 18.7638 4.11611 17.6337 2.99033C16.5079 1.86455 15.1415 1.51221 13.5989 1.43486C12.0091 1.34463 7.24385 1.34463 5.654 1.43486C4.11572 1.50791 2.74932 1.86025 1.61924 2.98604C0.48916 4.11182 0.141113 5.47822 0.0637695 7.0208C-0.0264648 8.61064 -0.0264648 13.3759 0.0637695 14.9657C0.136816 16.5083 0.48916 17.8747 1.61924 19.0005C2.74932 20.1263 4.11143 20.4786 5.654 20.556C7.24385 20.6462 12.0091 20.6462 13.5989 20.556C15.1415 20.4829 16.5079 20.1306 17.6337 19.0005C18.7595 17.8747 19.1118 16.5083 19.1892 14.9657C19.2794 13.3759 19.2794 8.61494 19.1892 7.0251ZM17.1353 16.6716C16.8001 17.5138 16.1513 18.1626 15.3048 18.5021C14.0372 19.0048 11.0294 18.8888 9.62861 18.8888C8.22783 18.8888 5.21572 19.0005 3.95244 18.5021C3.11025 18.1669 2.46143 17.5181 2.12197 16.6716C1.61924 15.404 1.73525 12.3962 1.73525 10.9954C1.73525 9.59463 1.62354 6.58252 2.12197 5.31924C2.45713 4.47705 3.10596 3.82822 3.95244 3.48877C5.22002 2.98603 8.22783 3.10205 9.62861 3.10205C11.0294 3.10205 14.0415 2.99033 15.3048 3.48877C16.147 3.82393 16.7958 4.47275 17.1353 5.31924C17.638 6.58682 17.522 9.59463 17.522 10.9954C17.522 12.3962 17.638 15.4083 17.1353 16.6716Z" fill="#5D7287"/>
</g>
<defs>
<clipPath id="clip0_22103_22220">
<rect width="19.25" height="22" fill="white"/>
</clipPath>
</defs>
</svg>
