<svg width="32" height="32" viewBox="0 0 32 32" fill="none" xmlns="http://www.w3.org/2000/svg">
<g clip-path="url(#clip0_13_89)">
<path d="M32 5.93C31.9 5.63 31.73 5.35 31.49 5.13L26.61 0.48C26.38 0.26 26.1 0.1 25.79 0H6C2.7 0 0 2.7 0 6V26.06C0.1 26.36 0.27 26.64 0.51 26.86L5.38 31.51C5.61 31.73 5.89 31.89 6.2 31.99H26C29.3 31.99 32 29.29 32 25.99V5.94V5.93Z" fill="url(#paint0_linear_13_89)"/>
<path d="M24.751 9.36321C24.751 9.18456 24.6744 9.02396 24.5537 8.91067L21.4052 6.26704C21.1936 6.10022 20.9271 6 20.6365 6H10.8637C10.7379 6.00498 10.6222 6.04669 10.5263 6.11516C10.4983 6.13508 7.155 8.94615 7.155 8.94615C7.05851 9.05571 7 9.19887 7 9.35636V22.9349C7 22.9349 7 22.9362 7 22.9368C7 23.1154 7.07656 23.276 7.19732 23.3893L10.3458 26.033C10.5574 26.1998 10.8238 26.3 11.1145 26.3H20.8873C21.0131 26.295 21.1288 26.2533 21.2247 26.1848C21.2527 26.1649 24.596 23.3538 24.596 23.3538C24.6925 23.2443 24.751 23.1011 24.751 22.9436V9.36445C24.751 9.36445 24.751 9.36321 24.751 9.36258V9.36321ZM21.0877 25.4111V25.4279C21.0834 25.596 20.9464 25.7304 20.7771 25.7304C20.7485 25.7304 20.7211 25.7255 20.6943 25.718L11.0199 21.9701C10.9807 21.9514 10.944 21.9296 10.9097 21.9035L10.8593 21.8612C10.7473 21.756 10.6738 21.6103 10.6639 21.4472C10.6639 21.4472 10.6639 21.446 10.6639 21.4454C10.6639 21.4398 10.6639 19.0102 10.6639 16.1488V6.88889V6.87208C10.6682 6.70401 10.8052 6.56956 10.9745 6.56956C11.0031 6.56956 11.0305 6.57454 11.0573 6.58201L20.7317 10.3299C20.7709 10.3486 20.8076 10.3704 20.8419 10.3965L20.8923 10.4388C21.0043 10.544 21.0778 10.6897 21.0877 10.8528C21.0877 10.8528 21.0877 10.854 21.0877 10.8546C21.0877 10.8602 21.0877 25.4124 21.0877 25.4124V25.4111Z" fill="white"/>
</g>
<defs>
<linearGradient id="paint0_linear_13_89" x1="16" y1="0" x2="16" y2="32" gradientUnits="userSpaceOnUse">
<stop stop-color="#0018FF"/>
<stop offset="1" stop-color="#1A1AAD"/>
</linearGradient>
<clipPath id="clip0_13_89">
<rect width="32" height="32" fill="white"/>
</clipPath>
</defs>
</svg>
